<mxfile host="app.diagrams.net" modified="2024-05-02T19:08:07.689Z" agent="Mozilla/5.0 (Macintosh; Intel Mac OS X 10.15; rv:125.0) Gecko/20100101 Firefox/125.0" etag="XPOD3TaPMW1RvnUJM5At" version="24.2.5" type="github">
  <diagram name="Page-1" id="eESwpwTJ727Z9VuxWrhZ">
    <mxGraphModel dx="1306" dy="862" grid="1" gridSize="10" guides="1" tooltips="1" connect="1" arrows="1" fold="1" page="1" pageScale="1" pageWidth="850" pageHeight="1100" math="0" shadow="0">
      <root>
        <mxCell id="0" />
        <mxCell id="1" parent="0" />
        <mxCell id="6uGf9xz0uIhTVBSY1WrW-1" value="" style="rounded=0;whiteSpace=wrap;html=1;" vertex="1" parent="1">
          <mxGeometry x="40" y="100" width="780" height="120" as="geometry" />
        </mxCell>
        <mxCell id="6uGf9xz0uIhTVBSY1WrW-2" value="" style="rounded=0;whiteSpace=wrap;html=1;dashed=1;fillColor=#f8cecc;strokeColor=#b85450;" vertex="1" parent="1">
          <mxGeometry x="330" y="130" width="480" height="80" as="geometry" />
        </mxCell>
        <mxCell id="6uGf9xz0uIhTVBSY1WrW-8" style="rounded=0;orthogonalLoop=1;jettySize=auto;html=1;exitX=1;exitY=0.5;exitDx=0;exitDy=0;entryX=0;entryY=0.5;entryDx=0;entryDy=0;" edge="1" parent="1" source="6uGf9xz0uIhTVBSY1WrW-9" target="6uGf9xz0uIhTVBSY1WrW-28">
          <mxGeometry relative="1" as="geometry" />
        </mxCell>
        <mxCell id="6uGf9xz0uIhTVBSY1WrW-19" value="&lt;font face=&quot;Courier New&quot;&gt;EL::Algorithm&lt;/font&gt;" style="text;html=1;align=left;verticalAlign=middle;whiteSpace=wrap;rounded=0;fontStyle=1" vertex="1" parent="1">
          <mxGeometry x="50" y="100" width="360" height="30" as="geometry" />
        </mxCell>
        <mxCell id="6uGf9xz0uIhTVBSY1WrW-20" value="" style="group;fontStyle=0" vertex="1" connectable="0" parent="1">
          <mxGeometry x="200" y="140" width="120" height="60" as="geometry" />
        </mxCell>
        <mxCell id="6uGf9xz0uIhTVBSY1WrW-21" value="" style="shape=parallelogram;perimeter=parallelogramPerimeter;whiteSpace=wrap;html=1;fixedSize=1;" vertex="1" parent="6uGf9xz0uIhTVBSY1WrW-20">
          <mxGeometry width="120" height="60" as="geometry" />
        </mxCell>
        <mxCell id="6uGf9xz0uIhTVBSY1WrW-22" value="&lt;b&gt;Electrons&lt;/b&gt;" style="text;html=1;align=center;verticalAlign=middle;whiteSpace=wrap;rounded=0;" vertex="1" parent="6uGf9xz0uIhTVBSY1WrW-20">
          <mxGeometry x="30" y="15" width="60" height="30" as="geometry" />
        </mxCell>
        <mxCell id="6uGf9xz0uIhTVBSY1WrW-23" style="edgeStyle=orthogonalEdgeStyle;rounded=0;orthogonalLoop=1;jettySize=auto;html=1;exitX=1;exitY=0.5;exitDx=0;exitDy=0;entryX=0;entryY=0.5;entryDx=0;entryDy=0;" edge="1" parent="1" source="6uGf9xz0uIhTVBSY1WrW-24" target="6uGf9xz0uIhTVBSY1WrW-21">
          <mxGeometry relative="1" as="geometry" />
        </mxCell>
        <mxCell id="6uGf9xz0uIhTVBSY1WrW-24" value="Event Store" style="rounded=1;whiteSpace=wrap;html=1;arcSize=50;" vertex="1" parent="1">
          <mxGeometry x="50" y="140" width="120" height="60" as="geometry" />
        </mxCell>
        <mxCell id="6uGf9xz0uIhTVBSY1WrW-25" style="edgeStyle=orthogonalEdgeStyle;rounded=0;orthogonalLoop=1;jettySize=auto;html=1;exitX=1;exitY=0.5;exitDx=0;exitDy=0;entryX=0;entryY=0.5;entryDx=0;entryDy=0;" edge="1" parent="1" source="6uGf9xz0uIhTVBSY1WrW-21" target="6uGf9xz0uIhTVBSY1WrW-9">
          <mxGeometry relative="1" as="geometry">
            <mxPoint x="350" y="170" as="targetPoint" />
          </mxGeometry>
        </mxCell>
        <mxCell id="6uGf9xz0uIhTVBSY1WrW-28" value="Event Store" style="rounded=1;whiteSpace=wrap;html=1;arcSize=50;" vertex="1" parent="1">
          <mxGeometry x="650" y="140" width="120" height="60" as="geometry" />
        </mxCell>
        <mxCell id="6uGf9xz0uIhTVBSY1WrW-38" value="" style="group;fontStyle=1" vertex="1" connectable="0" parent="1">
          <mxGeometry x="200" y="280" width="120" height="60" as="geometry" />
        </mxCell>
        <mxCell id="6uGf9xz0uIhTVBSY1WrW-39" value="" style="shape=parallelogram;perimeter=parallelogramPerimeter;whiteSpace=wrap;html=1;fixedSize=1;" vertex="1" parent="6uGf9xz0uIhTVBSY1WrW-38">
          <mxGeometry width="120" height="60" as="geometry" />
        </mxCell>
        <mxCell id="6uGf9xz0uIhTVBSY1WrW-40" value="&lt;b&gt;Electrons&lt;/b&gt;" style="text;html=1;align=center;verticalAlign=middle;whiteSpace=wrap;rounded=0;" vertex="1" parent="6uGf9xz0uIhTVBSY1WrW-38">
          <mxGeometry x="30" y="15" width="60" height="30" as="geometry" />
        </mxCell>
        <mxCell id="6uGf9xz0uIhTVBSY1WrW-41" style="edgeStyle=orthogonalEdgeStyle;rounded=0;orthogonalLoop=1;jettySize=auto;html=1;exitX=1;exitY=0.5;exitDx=0;exitDy=0;entryX=0;entryY=0.5;entryDx=0;entryDy=0;" edge="1" parent="1" source="6uGf9xz0uIhTVBSY1WrW-39">
          <mxGeometry relative="1" as="geometry">
            <mxPoint x="350" y="310" as="targetPoint" />
          </mxGeometry>
        </mxCell>
        <mxCell id="6uGf9xz0uIhTVBSY1WrW-44" value="&lt;pre&gt;&lt;font face=&quot;Courier New&quot;&gt;&lt;span&gt;Column&amp;lt;ConstDataVector&amp;lt;xAOD::ElectronContainer&amp;gt;(xAOD::ElectronContainer)&amp;gt;&lt;/span&gt;&lt;/font&gt;&lt;/pre&gt;" style="text;html=1;align=center;verticalAlign=middle;whiteSpace=wrap;rounded=0;fontStyle=1;fillColor=default;strokeColor=default;" vertex="1" parent="1">
          <mxGeometry x="40" y="240" width="610" height="30" as="geometry" />
        </mxCell>
        <mxCell id="6uGf9xz0uIhTVBSY1WrW-49" value="" style="group" vertex="1" connectable="0" parent="1">
          <mxGeometry x="500" y="140" width="120" height="60" as="geometry" />
        </mxCell>
        <mxCell id="6uGf9xz0uIhTVBSY1WrW-9" value="" style="shape=parallelogram;perimeter=parallelogramPerimeter;whiteSpace=wrap;html=1;fixedSize=1;" vertex="1" parent="6uGf9xz0uIhTVBSY1WrW-49">
          <mxGeometry width="120" height="60" as="geometry" />
        </mxCell>
        <mxCell id="6uGf9xz0uIhTVBSY1WrW-13" value="&lt;div&gt;&lt;b&gt;Electrons (calibrated)&lt;br&gt;&lt;/b&gt;&lt;/div&gt;" style="text;html=1;align=center;verticalAlign=middle;whiteSpace=wrap;rounded=0;" vertex="1" parent="6uGf9xz0uIhTVBSY1WrW-49">
          <mxGeometry x="30" y="15" width="60" height="30" as="geometry" />
        </mxCell>
        <mxCell id="6uGf9xz0uIhTVBSY1WrW-51" value="CP tool" style="rounded=0;whiteSpace=wrap;html=1;" vertex="1" parent="1">
          <mxGeometry x="350" y="140" width="120" height="60" as="geometry" />
        </mxCell>
        <mxCell id="6uGf9xz0uIhTVBSY1WrW-53" style="edgeStyle=orthogonalEdgeStyle;rounded=0;orthogonalLoop=1;jettySize=auto;html=1;exitX=1;exitY=0.5;exitDx=0;exitDy=0;entryX=0;entryY=0.5;entryDx=0;entryDy=0;" edge="1" parent="1" source="6uGf9xz0uIhTVBSY1WrW-21" target="6uGf9xz0uIhTVBSY1WrW-51">
          <mxGeometry relative="1" as="geometry" />
        </mxCell>
        <mxCell id="6uGf9xz0uIhTVBSY1WrW-54" value="(systematic variations)" style="text;html=1;align=left;verticalAlign=middle;whiteSpace=wrap;rounded=0;fontColor=#FF3333;" vertex="1" parent="1">
          <mxGeometry x="495" y="100" width="150" height="30" as="geometry" />
        </mxCell>
        <mxCell id="6uGf9xz0uIhTVBSY1WrW-68" style="edgeStyle=orthogonalEdgeStyle;rounded=0;orthogonalLoop=1;jettySize=auto;html=1;exitX=1;exitY=0.5;exitDx=0;exitDy=0;entryX=0;entryY=0.5;entryDx=0;entryDy=0;" edge="1" parent="1" source="6uGf9xz0uIhTVBSY1WrW-63" target="6uGf9xz0uIhTVBSY1WrW-5">
          <mxGeometry relative="1" as="geometry" />
        </mxCell>
        <mxCell id="6uGf9xz0uIhTVBSY1WrW-63" value="CP tool" style="rounded=0;whiteSpace=wrap;html=1;" vertex="1" parent="1">
          <mxGeometry x="350" y="280" width="120" height="60" as="geometry" />
        </mxCell>
        <mxCell id="6uGf9xz0uIhTVBSY1WrW-3" value="" style="rounded=0;whiteSpace=wrap;html=1;fillColor=#f8cecc;strokeColor=#b85450;" vertex="1" parent="1">
          <mxGeometry x="520" y="280" width="140" height="80" as="geometry" />
        </mxCell>
        <mxCell id="6uGf9xz0uIhTVBSY1WrW-5" value="" style="rounded=0;whiteSpace=wrap;html=1;" vertex="1" parent="1">
          <mxGeometry x="510" y="270" width="140" height="80" as="geometry" />
        </mxCell>
        <mxCell id="6uGf9xz0uIhTVBSY1WrW-61" value="" style="shape=parallelogram;perimeter=parallelogramPerimeter;whiteSpace=wrap;html=1;fixedSize=1;" vertex="1" parent="1">
          <mxGeometry x="520" y="280" width="120" height="60" as="geometry" />
        </mxCell>
        <mxCell id="6uGf9xz0uIhTVBSY1WrW-62" value="&lt;div&gt;&lt;b&gt;Electrons (calibrated)&lt;br&gt;&lt;/b&gt;&lt;/div&gt;" style="text;html=1;align=center;verticalAlign=middle;whiteSpace=wrap;rounded=0;" vertex="1" parent="1">
          <mxGeometry x="550" y="295" width="60" height="30" as="geometry" />
        </mxCell>
        <mxCell id="6uGf9xz0uIhTVBSY1WrW-46" value="(systematic variations)" style="text;html=1;align=center;verticalAlign=middle;whiteSpace=wrap;rounded=0;fontColor=#FF3333;" vertex="1" parent="1">
          <mxGeometry x="660" y="305" width="140" height="30" as="geometry" />
        </mxCell>
      </root>
    </mxGraphModel>
  </diagram>
</mxfile>
